<!-- icon666.com - MILLIONS OF FREE VECTOR ICONS --><svg id="Layer_1" enable-background="new 0 0 32 32" viewBox="0 0 32 32" xmlns="http://www.w3.org/2000/svg"><g><path d="m23.5 16.21-6.65 6.64c-.19.2-.51.2-.7 0l-4.65-4.64-4.5 4.49-1 1v3.8c0 1.38 1.12 2.5 2.5 2.5h15c1.38 0 2.5-1.12 2.5-2.5v-8.8l-1-1z" fill="#000000" style="fill: rgb(37, 99, 235);"></path><path d="m25 11h-7.5c-.28 0-.5-.22-.5-.5v-8.5h-8.5c-1.38 0-2.5 1.12-2.5 2.5v17.8l1-1 4.15-4.15c.19-.2.51-.2.7 0l4.65 4.64 6.65-6.64c.19-.2.51-.2.7 0l1.15 1.15 1 1v-6.3zm-13.5 5c-1.38 0-2.5-1.12-2.5-2.5s1.12-2.5 2.5-2.5 2.5 1.12 2.5 2.5-1.12 2.5-2.5 2.5z" fill="#000000" style="fill: rgb(37, 99, 235);"></path><path d="m18 2.3v7.7h7.7z" fill="#000000" style="fill: rgb(37, 99, 235);"></path><circle cx="11.5" cy="13.5" r="1.5" fill="#000000" style="fill: rgb(37, 99, 235);"></circle></g></svg>