<!-- icon666.com - MILLIONS OF FREE VECTOR ICONS --><svg id="Layer_1" viewBox="0 0 48 48" xmlns="http://www.w3.org/2000/svg" xmlns:xlink="http://www.w3.org/1999/xlink"><pattern id="Unnamed_Pattern_11" height="86" overflow="visible" patternUnits="userSpaceOnUse" viewBox="0 -86 98 86" width="98" x="-340" y="-476"><g><path d="m0 0h98v-86h-98z" fill="none"></path><path d="m98 0h-98v-86h98z" fill="#6e6eaa" style="fill: rgb(28, 147, 227);"></path></g></pattern><g fill="url(#Unnamed_Pattern_11)"><path d="m24 0c-1.25 0-2.264 1.014-2.264 2.264v8.707c0 1.252 1.014 2.266 2.264 2.266s2.264-1.014 2.264-2.266v-8.707c0-1.25-1.014-2.264-2.264-2.264z" fill="url(#Unnamed_Pattern_11)"></path><path d="m13.186 16.389c.443.441 1.021.662 1.602.662s1.158-.221 1.602-.662c.883-.885.883-2.318 0-3.201l-6.16-6.159c-.883-.885-2.318-.885-3.201 0-.885.885-.885 2.318 0 3.201z" fill="url(#Unnamed_Pattern_11)"></path><path d="m13.234 24c0-1.25-1.012-2.264-2.264-2.264h-8.706c-1.25 0-2.264 1.014-2.264 2.264s1.014 2.264 2.264 2.264h8.707c1.252 0 2.263-1.014 2.263-2.264z" fill="url(#Unnamed_Pattern_11)"></path><path d="m13.186 31.611-6.157 6.159c-.885.885-.885 2.318 0 3.201.441.443 1.021.664 1.602.664.578 0 1.158-.221 1.6-.664l6.158-6.156c.883-.885.883-2.318 0-3.203-.885-.885-2.319-.885-3.203-.001z" fill="url(#Unnamed_Pattern_11)"></path><path d="m24 34.766c-1.25 0-2.264 1.014-2.264 2.264v8.707c0 1.249 1.014 2.263 2.264 2.263s2.264-1.014 2.264-2.264v-8.707c0-1.25-1.014-2.263-2.264-2.263z" fill="url(#Unnamed_Pattern_11)"></path><path d="m34.813 31.611c-.883-.885-2.318-.885-3.201 0-.885.885-.885 2.318 0 3.203l6.156 6.156c.443.443 1.023.664 1.602.664.58 0 1.16-.221 1.602-.664.885-.885.885-2.316 0-3.201z" fill="url(#Unnamed_Pattern_11)"></path><path d="m45.736 21.736h-8.709c-1.25 0-2.264 1.014-2.264 2.264s1.014 2.264 2.264 2.264h8.709c1.25 0 2.264-1.014 2.264-2.264s-1.014-2.264-2.264-2.264z" fill="url(#Unnamed_Pattern_11)"></path><path d="m33.213 17.051c.578 0 1.158-.221 1.6-.662l6.158-6.156c.885-.885.885-2.318 0-3.203s-2.318-.883-3.203 0l-6.156 6.156c-.885.885-.885 2.318 0 3.203.441.441 1.021.662 1.601.662z" fill="url(#Unnamed_Pattern_11)"></path></g></svg>